<svg viewBox="0 0 800 266" fill="none" xmlns="http://www.w3.org/2000/svg">
<path d="M25.6481 77.9372C84.01 -19.0908 171.843 41.619 192 71L175 96.9785C161.339 77.0665 102.511 31.2209 62.9585 96.9785C13.5172 179.175 85.8354 230.5 162 195L166.607 230.482C54.2228 282.864 -47.3044 199.222 25.6481 77.9372Z" fill="white" stroke="white"/>
<g filter="url(#filter0_d_18_39)">
<path d="M43 71.3991C95.2375 -15.2766 172.958 28.1529 191 54.3991L169.166 93C156.939 75.2125 108.409 47.0296 77 108C43 174 92 192 162 170L169.166 207.669C68.5761 254.462 -22.2969 179.744 43 71.3991Z" fill="white"/>
</g>
<path d="M424.648 83.9372C483.01 -13.0908 570.843 47.619 591 77L574 102.978C560.339 83.0665 501.511 37.2209 461.958 102.978C412.517 185.175 484.835 236.5 561 201L565.607 236.482C453.223 288.864 351.696 205.222 424.648 83.9372Z" fill="white" stroke="white"/>
<g filter="url(#filter1_d_18_39)">
<path d="M442 77.3991C494.238 -9.27664 571.958 34.1529 590 60.3991L568.166 99C555.939 81.2125 507.409 53.0296 476 114C442 180 491 198 561 176L568.166 213.669C467.576 260.462 376.703 185.744 442 77.3991Z" fill="white"/>
</g>
<path fill-rule="evenodd" clip-rule="evenodd" d="M283 250.5C328.563 250.5 370 190.923 370 131C370 105.833 362.854 80.1669 351 63.5C334.629 40.4825 309.427 31 283 31C237.437 31 191 84.5771 191 144.5C191 171.933 195.575 196.463 210.5 215C228.177 236.954 258.295 250.5 283 250.5ZM287 203C327.869 203 332.5 189.572 332.5 136C332.5 82.4284 327.869 72.5 287 72.5C264.3 72.5 255.929 75.3449 244 91.5C234.453 104.43 235 120.684 235 144.5C235 170.654 238.821 178.812 248 191.5C257.622 204.802 266.083 203 287 203Z" fill="white"/>
<g filter="url(#filter2_d_18_39)">
<path fill-rule="evenodd" clip-rule="evenodd" d="M294 239.5C339.563 239.5 381 179.923 381 120C381 94.8332 373.854 69.1669 362 52.5C345.629 29.4825 320.427 20 294 20C248.437 20 202 73.5771 202 133.5C202 160.933 206.575 185.463 221.5 204C239.177 225.954 269.295 239.5 294 239.5ZM298 192C338.869 192 343.5 178.572 343.5 125C343.5 71.4284 338.869 61.5 298 61.5C275.3 61.5 266.929 64.3449 255 80.5C245.453 93.4302 246 109.684 246 133.5C246 159.654 249.821 167.812 259 180.5C268.622 193.802 277.083 192 298 192Z" fill="white"/>
</g>
<path fill-rule="evenodd" clip-rule="evenodd" d="M682 256.5C727.563 256.5 769 196.923 769 137C769 111.833 761.854 86.1669 750 69.5C733.629 46.4825 708.427 37 682 37C636.437 37 590 90.5771 590 150.5C590 177.933 594.575 202.463 609.5 221C627.177 242.954 657.295 256.5 682 256.5ZM686 209C726.869 209 731.5 195.572 731.5 142C731.5 88.4284 726.869 78.5 686 78.5C663.3 78.5 654.929 81.3449 643 97.5C633.453 110.43 634 126.684 634 150.5C634 176.654 637.821 184.812 647 197.5C656.622 210.802 665.083 209 686 209Z" fill="white"/>
<g filter="url(#filter3_d_18_39)">
<path fill-rule="evenodd" clip-rule="evenodd" d="M693 245.5C738.563 245.5 780 185.923 780 126C780 100.833 772.854 75.1669 761 58.5C744.629 35.4825 719.427 26 693 26C647.437 26 601 79.5771 601 139.5C601 166.933 605.575 191.463 620.5 210C638.177 231.954 668.295 245.5 693 245.5ZM697 198C737.869 198 742.5 184.572 742.5 131C742.5 77.4284 737.869 67.5 697 67.5C674.3 67.5 665.929 70.3449 654 86.5C644.453 99.4302 645 115.684 645 139.5C645 165.654 648.821 173.812 658 186.5C667.622 199.802 676.083 198 697 198Z" fill="white"/>
</g>
<defs>
<filter id="filter0_d_18_39" x="0.938477" y="0" width="210.062" height="241.887" filterUnits="userSpaceOnUse" color-interpolation-filters="sRGB">
<feFlood flood-opacity="0" result="BackgroundImageFix"/>
<feColorMatrix in="SourceAlpha" type="matrix" values="0 0 0 0 0 0 0 0 0 0 0 0 0 0 0 0 0 0 127 0" result="hardAlpha"/>
<feOffset/>
<feGaussianBlur stdDeviation="10"/>
<feComposite in2="hardAlpha" operator="out"/>
<feColorMatrix type="matrix" values="0 0 0 0 0 0 0 0 0 0 0 0 0 0 0 0 0 0 0.25 0"/>
<feBlend mode="normal" in2="BackgroundImageFix" result="effect1_dropShadow_18_39"/>
<feBlend mode="normal" in="SourceGraphic" in2="effect1_dropShadow_18_39" result="shape"/>
</filter>
<filter id="filter1_d_18_39" x="399.938" y="6" width="210.062" height="241.887" filterUnits="userSpaceOnUse" color-interpolation-filters="sRGB">
<feFlood flood-opacity="0" result="BackgroundImageFix"/>
<feColorMatrix in="SourceAlpha" type="matrix" values="0 0 0 0 0 0 0 0 0 0 0 0 0 0 0 0 0 0 127 0" result="hardAlpha"/>
<feOffset/>
<feGaussianBlur stdDeviation="10"/>
<feComposite in2="hardAlpha" operator="out"/>
<feColorMatrix type="matrix" values="0 0 0 0 0 0 0 0 0 0 0 0 0 0 0 0 0 0 0.25 0"/>
<feBlend mode="normal" in2="BackgroundImageFix" result="effect1_dropShadow_18_39"/>
<feBlend mode="normal" in="SourceGraphic" in2="effect1_dropShadow_18_39" result="shape"/>
</filter>
<filter id="filter2_d_18_39" x="182" y="0" width="219" height="259.5" filterUnits="userSpaceOnUse" color-interpolation-filters="sRGB">
<feFlood flood-opacity="0" result="BackgroundImageFix"/>
<feColorMatrix in="SourceAlpha" type="matrix" values="0 0 0 0 0 0 0 0 0 0 0 0 0 0 0 0 0 0 127 0" result="hardAlpha"/>
<feOffset/>
<feGaussianBlur stdDeviation="10"/>
<feComposite in2="hardAlpha" operator="out"/>
<feColorMatrix type="matrix" values="0 0 0 0 0 0 0 0 0 0 0 0 0 0 0 0 0 0 0.25 0"/>
<feBlend mode="normal" in2="BackgroundImageFix" result="effect1_dropShadow_18_39"/>
<feBlend mode="normal" in="SourceGraphic" in2="effect1_dropShadow_18_39" result="shape"/>
</filter>
<filter id="filter3_d_18_39" x="581" y="6" width="219" height="259.5" filterUnits="userSpaceOnUse" color-interpolation-filters="sRGB">
<feFlood flood-opacity="0" result="BackgroundImageFix"/>
<feColorMatrix in="SourceAlpha" type="matrix" values="0 0 0 0 0 0 0 0 0 0 0 0 0 0 0 0 0 0 127 0" result="hardAlpha"/>
<feOffset/>
<feGaussianBlur stdDeviation="10"/>
<feComposite in2="hardAlpha" operator="out"/>
<feColorMatrix type="matrix" values="0 0 0 0 0 0 0 0 0 0 0 0 0 0 0 0 0 0 0.25 0"/>
<feBlend mode="normal" in2="BackgroundImageFix" result="effect1_dropShadow_18_39"/>
<feBlend mode="normal" in="SourceGraphic" in2="effect1_dropShadow_18_39" result="shape"/>
</filter>
</defs>
</svg>
