<svg viewBox="0 0 800 393" fill="none" xmlns="http://www.w3.org/2000/svg">
<path d="M25.6481 77.9372C84.01 -19.0908 171.843 41.619 192 71L175 96.9785C161.339 77.0665 102.511 31.2209 62.9585 96.9785C13.5172 179.175 85.8354 230.5 162 195L166.607 230.482C54.2228 282.864 -47.3044 199.222 25.6481 77.9372Z" fill="white" stroke="white"/>
<g filter="url(#filter0_d_6_52)">
<path d="M43 71.3991C95.2375 -15.2766 172.958 28.1529 191 54.3991L169.166 93C156.939 75.2125 108.409 47.0296 77 108C43 174 92 192 162 170L169.166 207.669C68.5761 254.462 -22.2969 179.744 43 71.3991Z" fill="white"/>
</g>
<path d="M424.648 83.9372C483.01 -13.0908 570.843 47.619 591 77L574 102.978C560.339 83.0665 501.511 37.2209 461.958 102.978C412.517 185.175 484.835 236.5 561 201L565.607 236.482C453.223 288.864 351.696 205.222 424.648 83.9372Z" fill="white" stroke="white"/>
<g filter="url(#filter1_d_6_52)">
<path d="M442 77.3991C494.238 -9.27664 571.958 34.1529 590 60.3991L568.166 99C555.939 81.2125 507.409 53.0296 476 114C442 180 491 198 561 176L568.166 213.669C467.576 260.462 376.703 185.744 442 77.3991Z" fill="white"/>
</g>
<path fill-rule="evenodd" clip-rule="evenodd" d="M283 250.5C328.563 250.5 370 190.923 370 131C370 105.833 362.854 80.1669 351 63.5C334.629 40.4825 309.427 31 283 31C237.437 31 191 84.5771 191 144.5C191 171.933 195.575 196.463 210.5 215C228.177 236.954 258.295 250.5 283 250.5ZM287 203C327.869 203 332.5 189.572 332.5 136C332.5 82.4284 327.869 72.5 287 72.5C264.3 72.5 255.929 75.3449 244 91.5C234.453 104.43 235 120.684 235 144.5C235 170.654 238.821 178.812 248 191.5C257.622 204.802 266.083 203 287 203Z" fill="white"/>
<g filter="url(#filter2_d_6_52)">
<path fill-rule="evenodd" clip-rule="evenodd" d="M294 239.5C339.563 239.5 381 179.923 381 120C381 94.8332 373.854 69.1669 362 52.5C345.629 29.4825 320.427 20 294 20C248.437 20 202 73.5771 202 133.5C202 160.933 206.575 185.463 221.5 204C239.177 225.954 269.295 239.5 294 239.5ZM298 192C338.869 192 343.5 178.572 343.5 125C343.5 71.4284 338.869 61.5 298 61.5C275.3 61.5 266.929 64.3449 255 80.5C245.453 93.4302 246 109.684 246 133.5C246 159.654 249.821 167.812 259 180.5C268.622 193.802 277.083 192 298 192Z" fill="white"/>
</g>
<path fill-rule="evenodd" clip-rule="evenodd" d="M682 256.5C727.563 256.5 769 196.923 769 137C769 111.833 761.854 86.1669 750 69.5C733.629 46.4825 708.427 37 682 37C636.437 37 590 90.5771 590 150.5C590 177.933 594.575 202.463 609.5 221C627.177 242.954 657.295 256.5 682 256.5ZM686 209C726.869 209 731.5 195.572 731.5 142C731.5 88.4284 726.869 78.5 686 78.5C663.3 78.5 654.929 81.3449 643 97.5C633.453 110.43 634 126.684 634 150.5C634 176.654 637.821 184.812 647 197.5C656.622 210.802 665.083 209 686 209Z" fill="white"/>
<g filter="url(#filter3_d_6_52)">
<path fill-rule="evenodd" clip-rule="evenodd" d="M693 245.5C738.563 245.5 780 185.923 780 126C780 100.833 772.854 75.1669 761 58.5C744.629 35.4825 719.427 26 693 26C647.437 26 601 79.5771 601 139.5C601 166.933 605.575 191.463 620.5 210C638.177 231.954 668.295 245.5 693 245.5ZM697 198C737.869 198 742.5 184.572 742.5 131C742.5 77.4284 737.869 67.5 697 67.5C674.3 67.5 665.929 70.3449 654 86.5C644.453 99.4302 645 115.684 645 139.5C645 165.654 648.821 173.812 658 186.5C667.622 199.802 676.083 198 697 198Z" fill="white"/>
</g>
<path d="M253.188 350.859C253.188 349 253.497 347.086 254.117 345.117C257.253 344.242 260.188 343.823 262.922 343.859C262.229 336.75 261.646 328.984 261.172 320.562C260.698 312.104 260.37 304.302 260.188 297.156H260.133L252.312 296.008C251.839 294.659 251.474 293.164 251.219 291.523C250.964 289.883 250.836 288.297 250.836 286.766C250.836 285.599 250.927 284.323 251.109 282.938C255.01 281.224 261.135 280.021 269.484 279.328C277.833 278.599 286.128 278.234 294.367 278.234C299.909 278.234 304.612 278.672 308.477 279.547C312.341 280.422 315.568 282.409 318.156 285.508C320.781 288.57 322.094 293.164 322.094 299.289C322.094 310.628 319.359 325.503 313.891 343.914C312.979 346.94 311.958 349.656 310.828 352.062C309.698 354.469 308.258 356.547 306.508 358.297C305.013 359.974 303.464 361.25 301.859 362.125C300.292 362.964 298.396 363.383 296.172 363.383C295.042 363.383 293.51 363.201 291.578 362.836C289.172 362.362 287.039 361.76 285.18 361.031C283.32 360.266 281.771 359.5 280.531 358.734C279.328 357.969 277.888 357.003 276.211 355.836C275.482 356.893 274.26 358.06 272.547 359.336C270.87 360.612 269.01 361.706 266.969 362.617C264.927 363.529 263.031 364.021 261.281 364.094C258.766 363.146 256.779 361.469 255.32 359.062C253.898 356.62 253.188 353.885 253.188 350.859ZM295.297 343.422C296.318 338.391 297.12 332.557 297.703 325.922C298.286 319.25 298.779 312.049 299.18 304.32L299.398 300.438C299.18 300.036 298.286 299.635 296.719 299.234C295.188 298.833 293.164 298.633 290.648 298.633L286.383 298.578C284.341 298.578 282.701 298.669 281.461 298.852C281.461 300.383 281.479 301.677 281.516 302.734C281.625 309.078 281.68 314.747 281.68 319.742C281.68 325.539 281.625 333.779 281.516 344.461C286.292 344.461 290.885 344.115 295.297 343.422ZM333.141 319.578C333.141 311.156 333.286 303.682 333.578 297.156L326.195 296.008C325.721 294.659 325.357 293.164 325.102 291.523C324.846 289.883 324.719 288.297 324.719 286.766C324.719 285.599 324.81 284.323 324.992 282.938C329.768 281.26 336.076 280.057 343.914 279.328C351.753 278.599 359.409 278.234 366.883 278.234C372.461 278.234 377.255 278.672 381.266 279.547C385.276 280.422 388.63 282.409 391.328 285.508C394.062 288.57 395.43 293.164 395.43 299.289C395.43 301.805 395.029 304.594 394.227 307.656C393.424 310.682 392.312 313.708 390.891 316.734C389.578 319.505 388.083 322.148 386.406 324.664C384.766 327.143 383.052 329.276 381.266 331.062C382.323 333.833 383.417 336.367 384.547 338.664C385.677 340.924 387.409 343.677 389.742 346.922L397.398 343.695C400.242 346.138 401.901 349.383 402.375 353.43C402.375 353.648 401.5 354.688 399.75 356.547C398.036 358.406 395.794 360.138 393.023 361.742C390.253 363.31 387.135 364.094 383.672 364.094C380.974 364.094 378.549 363.62 376.398 362.672C374.284 361.724 372.534 360.065 371.148 357.695C369.799 355.362 368.724 352.591 367.922 349.383C367.12 346.174 366.555 343.003 366.227 339.867L353.758 339.32C354.086 342.164 354.505 345.099 355.016 348.125C355.526 351.115 355.836 352.919 355.945 353.539C356.565 357.148 356.966 359.609 357.148 360.922C355.471 361.943 353.43 362.727 351.023 363.273C348.654 363.82 346.229 364.094 343.75 364.094C340.906 364.094 338.154 363.711 335.492 362.945C334.69 359.737 334.089 354.122 333.688 346.102C333.323 338.044 333.141 329.203 333.141 319.578ZM367.156 326.141C368.432 322.495 369.435 318.539 370.164 314.273C370.93 309.971 371.622 304.849 372.242 298.906C371.185 298.505 369.799 298.195 368.086 297.977C366.372 297.758 364.714 297.648 363.109 297.648C359.464 297.648 356.729 297.74 354.906 297.922C354.505 311.63 354.068 321.346 353.594 327.07L367.156 326.141ZM404.836 321.656C404.836 292.708 416.211 278.234 438.961 278.234C447.966 278.234 454.984 280.112 460.016 283.867C465.083 287.586 468.565 292.617 470.461 298.961C472.393 305.268 473.359 312.833 473.359 321.656C473.359 334.635 470.698 344.953 465.375 352.609C460.052 360.266 451.247 364.094 438.961 364.094C426.602 364.094 417.815 360.302 412.602 352.719C407.424 345.135 404.836 334.781 404.836 321.656ZM441.695 346.648C444.685 346.648 446.398 346.484 446.836 346.156C447.747 344.552 448.44 341.763 448.914 337.789C449.388 333.779 449.625 329.294 449.625 324.336C449.625 319.122 449.37 314.292 448.859 309.844C448.385 305.359 447.711 302.224 446.836 300.438C445.924 299.708 444.576 299.161 442.789 298.797C441.003 298.432 439.034 298.232 436.883 298.195C435.643 298.195 434.513 298.268 433.492 298.414C432.508 298.523 431.797 298.706 431.359 298.961C430.302 300.784 429.518 303.427 429.008 306.891C428.534 310.318 428.297 314.237 428.297 318.648C428.297 323.643 428.57 328.62 429.117 333.578C429.664 338.536 430.339 342.328 431.141 344.953C431.651 345.5 432.945 345.919 435.023 346.211C437.102 346.503 439.326 346.648 441.695 346.648ZM486.648 322.531C486.648 311.521 486.812 303.062 487.141 297.156H487.086L479.266 296.008C478.792 294.659 478.427 293.164 478.172 291.523C477.917 289.883 477.789 288.297 477.789 286.766C477.789 285.599 477.88 284.323 478.062 282.938C482.547 281.333 488.727 280.148 496.602 279.383C504.477 278.617 512.06 278.234 519.352 278.234C524.93 278.234 529.724 278.672 533.734 279.547C537.745 280.422 541.099 282.409 543.797 285.508C546.531 288.57 547.898 293.164 547.898 299.289C547.898 302.352 547.242 305.924 545.93 310.008C544.654 314.055 543.013 318.01 541.008 321.875C539.039 325.703 537.052 328.802 535.047 331.172C532.094 334.708 528.812 336.786 525.203 337.406C519.224 338.354 512.898 338.828 506.227 338.828C506.081 342.583 506.026 345.281 506.062 346.922L514.211 346.375C515.888 349.109 516.818 352.354 517 356.109C517 356.292 516.18 357.076 514.539 358.461C512.898 359.846 510.729 361.122 508.031 362.289C505.37 363.456 502.307 364.039 498.844 364.039C495.417 364.039 492.682 363.109 490.641 361.25C488.635 359.354 487.633 356.091 487.633 351.461C487.013 343.878 486.703 334.253 486.703 322.586L486.648 322.531ZM521.266 323.461C522.214 319.451 522.997 315.203 523.617 310.719C524.273 306.198 524.638 302.26 524.711 298.906C524.529 298.578 523.599 298.286 521.922 298.031C520.245 297.776 518.076 297.648 515.414 297.648C513.555 297.648 511.24 297.721 508.469 297.867C508.141 308.878 507.703 317.719 507.156 324.391L521.266 323.461Z" fill="white"/>
<defs>
<filter id="filter0_d_6_52" x="0.938477" y="0" width="210.062" height="241.887" filterUnits="userSpaceOnUse" color-interpolation-filters="sRGB">
<feFlood flood-opacity="0" result="BackgroundImageFix"/>
<feColorMatrix in="SourceAlpha" type="matrix" values="0 0 0 0 0 0 0 0 0 0 0 0 0 0 0 0 0 0 127 0" result="hardAlpha"/>
<feOffset/>
<feGaussianBlur stdDeviation="10"/>
<feComposite in2="hardAlpha" operator="out"/>
<feColorMatrix type="matrix" values="0 0 0 0 0 0 0 0 0 0 0 0 0 0 0 0 0 0 0.25 0"/>
<feBlend mode="normal" in2="BackgroundImageFix" result="effect1_dropShadow_6_52"/>
<feBlend mode="normal" in="SourceGraphic" in2="effect1_dropShadow_6_52" result="shape"/>
</filter>
<filter id="filter1_d_6_52" x="399.938" y="6" width="210.062" height="241.887" filterUnits="userSpaceOnUse" color-interpolation-filters="sRGB">
<feFlood flood-opacity="0" result="BackgroundImageFix"/>
<feColorMatrix in="SourceAlpha" type="matrix" values="0 0 0 0 0 0 0 0 0 0 0 0 0 0 0 0 0 0 127 0" result="hardAlpha"/>
<feOffset/>
<feGaussianBlur stdDeviation="10"/>
<feComposite in2="hardAlpha" operator="out"/>
<feColorMatrix type="matrix" values="0 0 0 0 0 0 0 0 0 0 0 0 0 0 0 0 0 0 0.25 0"/>
<feBlend mode="normal" in2="BackgroundImageFix" result="effect1_dropShadow_6_52"/>
<feBlend mode="normal" in="SourceGraphic" in2="effect1_dropShadow_6_52" result="shape"/>
</filter>
<filter id="filter2_d_6_52" x="182" y="0" width="219" height="259.5" filterUnits="userSpaceOnUse" color-interpolation-filters="sRGB">
<feFlood flood-opacity="0" result="BackgroundImageFix"/>
<feColorMatrix in="SourceAlpha" type="matrix" values="0 0 0 0 0 0 0 0 0 0 0 0 0 0 0 0 0 0 127 0" result="hardAlpha"/>
<feOffset/>
<feGaussianBlur stdDeviation="10"/>
<feComposite in2="hardAlpha" operator="out"/>
<feColorMatrix type="matrix" values="0 0 0 0 0 0 0 0 0 0 0 0 0 0 0 0 0 0 0.25 0"/>
<feBlend mode="normal" in2="BackgroundImageFix" result="effect1_dropShadow_6_52"/>
<feBlend mode="normal" in="SourceGraphic" in2="effect1_dropShadow_6_52" result="shape"/>
</filter>
<filter id="filter3_d_6_52" x="581" y="6" width="219" height="259.5" filterUnits="userSpaceOnUse" color-interpolation-filters="sRGB">
<feFlood flood-opacity="0" result="BackgroundImageFix"/>
<feColorMatrix in="SourceAlpha" type="matrix" values="0 0 0 0 0 0 0 0 0 0 0 0 0 0 0 0 0 0 127 0" result="hardAlpha"/>
<feOffset/>
<feGaussianBlur stdDeviation="10"/>
<feComposite in2="hardAlpha" operator="out"/>
<feColorMatrix type="matrix" values="0 0 0 0 0 0 0 0 0 0 0 0 0 0 0 0 0 0 0.25 0"/>
<feBlend mode="normal" in2="BackgroundImageFix" result="effect1_dropShadow_6_52"/>
<feBlend mode="normal" in="SourceGraphic" in2="effect1_dropShadow_6_52" result="shape"/>
</filter>
</defs>
</svg>
